Soccer Kick
version=1
nRows=5
nColumns=41
inDegrees=yes
endheader
time	/jointset/ground_pelvis/turn/value	/jointset/ground_pelvis/turn/speed	/jointset/hip_r/hip_flexion_r/value	/jointset/hip_r/hip_flexion_r/speed	/jointset/knee_r/knee_angle_r/value	/jointset/knee_r/knee_angle_r/speed	/jointset/tib_pat_r/knee_angle_pat_r/value	/jointset/tib_pat_r/knee_angle_pat_r/speed	/jointset/ankle_r/ankle_angle_r/value	/jointset/ankle_r/ankle_angle_r/speed	/jointset/free/ball_rx/value	/jointset/free/ball_rx/speed	/jointset/free/ball_ry/value	/jointset/free/ball_ry/speed	/jointset/free/ball_rz/value	/jointset/free/ball_rz/speed	/jointset/free/ball_tx/value	/jointset/free/ball_tx/speed	/jointset/free/ball_ty/value	/jointset/free/ball_ty/speed	/jointset/free/ball_tz/value	/jointset/free/ball_tz/speed	/forceset/bifemlh_r/activation	/forceset/bifemlh_r/fiber_length	/forceset/bifemsh_r/activation	/forceset/bifemsh_r/fiber_length	/forceset/glut_max2_r/activation	/forceset/glut_max2_r/fiber_length	/forceset/psoas_r/activation	/forceset/psoas_r/fiber_length	/forceset/rect_fem_r/activation	/forceset/rect_fem_r/fiber_length	/forceset/vas_int_r/activation	/forceset/vas_int_r/fiber_length	/forceset/med_gas_r/activation	/forceset/med_gas_r/fiber_length	/forceset/soleus_r/activation	/forceset/soleus_r/fiber_length	/forceset/tib_ant_r/activation	/forceset/tib_ant_r/fiber_length
      1.08558478	     -2.42017092	     39.90367384	     17.85518178	   -105.39416700	     -7.39523652	     13.83212577	     -0.12907123	      0.24141614	      7.91751697	    148.71870425	      5.11561363	     82.16130150	    -47.08630170	    -78.92208856	    -17.64016744	   -243.57302075	      3.49700833	      2.67706668	      0.12425182	      0.71851796	      0.58634151	      0.62448926	     -0.11432692	      0.12592021	     -0.11432692	      0.19542492	     -0.11432692	      0.10801476	     -0.11432692	      0.09562180	     -0.11432692	      0.10762668	     -0.11432692	      0.08459837	     -0.11432692	      0.11019061	     -0.11432692	      0.09709298	     -0.11432692	      0.08608452
      1.08613679	     -2.39813615	     39.93136112	     17.79682831	   -106.02719716	     -7.38687863	     16.44922549	     -0.12892535	      0.28709314	      7.99867693	    145.52184041	      5.02091631	     82.16130150	    -47.14157511	    -78.92208856	    -17.83130892	   -243.57302075	      3.49848609	      2.67706668	      0.12464695	      0.71310461	      0.58668623	      0.62448926	     -0.11439799	      0.12585421	     -0.11439799	      0.19542590	     -0.11439799	      0.10795787	     -0.11439799	      0.09566652	     -0.11439799	      0.10767401	     -0.11439799	      0.08459979	     -0.11439799	      0.11026209	     -0.11439799	      0.09715688	     -0.11439799	      0.08592808
      1.08811410	     -2.31907769	     40.03507284	     17.58497735	   -108.23969752	     -7.34510404	     25.79805716	     -0.12819625	      0.45026104	      8.28184066	    143.23330663	      4.67867679	     82.16130150	    -47.33779158	    -78.92208856	    -18.51871825	   -243.57302075	      3.50377950	      2.67706668	      0.12603781	      0.69371374	      0.58792105	      0.62448926	     -0.11465257	      0.12562140	     -0.11465257	      0.19543358	     -0.11465257	      0.10775101	     -0.11465257	      0.09582891	     -0.11465257	      0.10783542	     -0.11465257	      0.08459726	     -0.11465257	      0.11051306	     -0.11465257	      0.09737770	     -0.11465257	      0.08536774
      1.08909000	     -2.27998169	     40.08851572	     17.47882757	   -109.30053881	     -7.31768399	     30.39486003	     -0.12771768	      0.53049038	      8.42326347	    147.10727406	      4.50802209	     82.16130150	    -47.43360015	    -78.92208856	    -18.85956025	   -243.57302075	      3.50639204	      2.67706668	      0.12671014	      0.68414348	      0.58853048	      0.62448926	     -0.11477822	      0.12550861	     -0.11477822	      0.19544018	     -0.11477822	      0.10764718	     -0.11477822	      0.09591028	     -0.11477822	      0.10791041	     -0.11477822	      0.08458929	     -0.11477822	      0.11063867	     -0.11477822	      0.09748548	     -0.11477822	      0.08509119
      1.09027389	     -2.23248238	     40.15465839	     17.34867827	   -110.56312752	     -7.27840557	     35.95748979	     -0.12703214	      0.62757659	      8.60205115	    155.54395782	      4.29945035	     82.16130150	    -47.54890139	    -78.92208856	    -19.27444301	   -243.57302075	      3.50956138	      2.67706668	      0.12751321	      0.67253352	      0.58926981	      0.62448926	     -0.11493064	      0.12537370	     -0.11493064	      0.19545099	     -0.11493064	      0.10751971	     -0.11493064	      0.09601005	     -0.11493064	      0.10799726	     -0.11493064	      0.08457317	     -0.11493064	      0.11079805	     -0.11493064	      0.09762177	     -0.11493064	      0.08475569
